<svg xmlns="http://www.w3.org/2000/svg" viewBox="0 0 64 64" role="img" aria-label="ZipRecruiter">
  <path fill="#8BC53F" d="M18 44c-1.1 0-2 .9-2 2v4c0 1.1.9 2 2 2h4c1.1 0 2-.9 2-2v-4c0-1.1-.9-2-2-2h-4zm24 0c-1.1 0-2 .9-2 2v4c0 1.1.9 2 2 2h4c1.1 0 2-.9 2-2v-4c0-1.1-.9-2-2-2h-4z"/>
  <path fill="#8BC53F" d="M14 28c0-8.8 7.2-16 16-16h4c8.8 0 16 7.2 16 16v8c0 2.2-1.8 4-4 4H18c-2.2 0-4-1.8-4-4v-8z"/>
  <path fill="#8BC53F" d="M22 36h20c2.2 0 4 1.8 4 4v2c0 2.2-1.8 4-4 4H22c-2.2 0-4-1.8-4-4v-2c0-2.2 1.8-4 4-4z"/>
  <path fill="#8BC53F" d="M28 12c0-2.2 1.8-4 4-4s4 1.8 4 4v4H28v-4z"/>
</svg>
